<svg id="Line" height="512" viewBox="0 0 64 64" width="512" xmlns="http://www.w3.org/2000/svg"><path d="m58 17h-40a3 3 0 0 0 -3 3v40a3 3 0 0 0 3 3h40a3 3 0 0 0 3-3v-40a3 3 0 0 0 -3-3zm-4.359 24.769-18 15a1 1 0 0 1 -1.348-.062l-9-9a1 1 0 0 1 1.414-1.414l8.355 8.354 17.3-14.416a1 1 0 0 1 1.282 1.538zm0-9-18 15a1 1 0 0 1 -1.348-.062l-9-9a1 1 0 0 1 1.414-1.414l8.355 8.354 17.3-14.416a1 1 0 0 1 1.282 1.538zm0-9-18 15a1 1 0 0 1 -1.348-.062l-9.5-9.5a1 1 0 0 1 1.414-1.414l8.855 8.854 17.3-14.416a1 1 0 0 1 1.282 1.538z" fill="#fc8a15"/><g fill="#151a6a"><path d="m44.771 5.364-2-2a8.071 8.071 0 0 0 -11.414 0l-1.288 1.288a21.848 21.848 0 0 0 -10.01 0l-1.288-1.288a8.071 8.071 0 0 0 -11.414 0l-2 2a8.075 8.075 0 0 0 -.152 11.247 21.967 21.967 0 0 0 5.124 25.781l-3.972 3.972a1 1 0 0 0 1.414 1.414c2.428-2.446 3.836-3.787 4.084-4.126a21.953 21.953 0 0 0 26.394.019l4.108 4.107a1 1 0 0 0 1.414-1.414l-3.971-3.972a21.964 21.964 0 0 0 5.123-25.781 8.074 8.074 0 0 0 -.152-11.247zm-38 1.414 2-2a6.072 6.072 0 0 1 8.586 0l.509.509a22.11 22.11 0 0 0 -11.632 9.419 6.06 6.06 0 0 1 .537-7.928zm18.293 39.293a20 20 0 1 1 20-20 20.022 20.022 0 0 1 -20 20zm7.2-40.784.509-.509a6.072 6.072 0 0 1 8.586 0l2 2a6.062 6.062 0 0 1 .537 7.928 22.11 22.11 0 0 0 -11.634-9.419z"/><path d="m25.064 10.071a1 1 0 0 0 -1 1v14.5l-11.6 8.7a1 1 0 0 0 1.2 1.6l12-9a1 1 0 0 0 .4-.8v-15a1 1 0 0 0 -1-1z"/><path d="m10.064 25.071h-2a1 1 0 0 0 0 2h2a1 1 0 1 0 0-2z"/><path d="m40.064 27.071h2a1 1 0 0 0 0-2h-2a1 1 0 0 0 0 2z"/><path d="m25.064 40.071a1 1 0 0 0 -1 1v2a1 1 0 0 0 2 0v-2a1 1 0 0 0 -1-1z"/></g></svg>