<svg id="Line" height="512" viewBox="0 0 64 64" width="512" xmlns="http://www.w3.org/2000/svg"><path d="m60 11h-30a3.009 3.009 0 0 0 -3 3v44a3.009 3.009 0 0 0 3 3h30a3.009 3.009 0 0 0 3-3v-44a3.009 3.009 0 0 0 -3-3zm-24 8h18a1 1 0 0 1 0 2h-18a1 1 0 0 1 0-2zm0 8h18a1 1 0 0 1 0 2h-18a1 1 0 0 1 0-2zm0 8h18a1 1 0 0 1 0 2h-18a1 1 0 0 1 0-2zm18 10h-18a1 1 0 0 1 0-2h18a1 1 0 0 1 0 2zm7 13a1 1 0 0 1 -1 1h-5v-5a1 1 0 0 1 1-1h5z" fill="#fc8a15"/><path d="m48 9h-13v-4h2a1 1 0 0 0 0-2h-22a1 1 0 0 0 0 2h2v4h-13a3 3 0 0 0 -3 3v12a8.971 8.971 0 0 0 3 6.689v15.311a3 3 0 0 0 3 3h38a3 3 0 0 0 3-3v-15.311a8.971 8.971 0 0 0 3-6.689v-12a3 3 0 0 0 -3-3zm-29-4h14v4h-14zm27 41a1 1 0 0 1 -1 1h-38a1 1 0 0 1 -1-1v-13.95a8.921 8.921 0 0 0 4 .95h7v6h-1a1 1 0 0 0 0 2h4a1 1 0 0 0 0-2h-1v-6h14v6h-1a1 1 0 0 0 0 2h4a1 1 0 0 0 0-2h-1v-6h7a8.921 8.921 0 0 0 4-.95zm3-22a7.008 7.008 0 0 1 -7 7h-7v-6h1a1 1 0 0 0 0-2h-4a1 1 0 0 0 0 2h1v6h-14v-6h1a1 1 0 0 0 0-2h-4a1 1 0 0 0 0 2h1v6h-7a7.008 7.008 0 0 1 -7-7v-12a1 1 0 0 1 1-1h44a1 1 0 0 1 1 1z" fill="#151a6a"/></svg>