<svg id="line" height="512" viewBox="0 0 64 64" width="512" xmlns="http://www.w3.org/2000/svg"><path d="m43.159 13.916c-10.646 1.638-10.888 12.853-12.227 15.526a7.79 7.79 0 0 1 -7.509 5.587c-9.056 0-9.7 12.666-3.5 19.983 12.058 14.234 43.077 1.855 43.077-24.074a17.225 17.225 0 0 0 -19.841-17.022zm-9.159 40.113a4 4 0 1 1 4-4 4 4 0 0 1 -4 4zm14-7a4 4 0 1 1 4-4 4 4 0 0 1 -4 4zm3-15a4 4 0 1 1 4-4 4 4 0 0 1 -4 4z" fill="#fc8a15"/><g fill="#1e1a42"><path d="m49.535 5.88-1.414-1.414a5 5 0 0 0 -7.07 0l-8.051 8.05v-6.516a3 3 0 0 0 -3-3h-26a3 3 0 0 0 -3 3v44a3 3 0 0 0 3 3h26a3 3 0 0 0 3-3v-20.514l16.535-16.535a5 5 0 0 0 0-7.071zm-18.242 22.485-5.8 5.8-5.657-5.657 12.87-12.87 7.595-7.6 5.658 5.662zm-13.577 7.92a4 4 0 0 1 0-5.656l.707-.707 5.657 5.656-.707.707a4.1 4.1 0 0 1 -5.657 0zm6.004-31.285-.311 1.242a1 1 0 0 1 -.971.758h-10.876a1 1 0 0 1 -.971-.758l-.311-1.242zm6.28 46h-26a1 1 0 0 1 -1-1v-1h28v1a1 1 0 0 1 -1 1zm1-4h-28v-41a1 1 0 0 1 1-1h4.22l.431 1.728a3 3 0 0 0 2.911 2.272h10.876a3 3 0 0 0 2.911-2.272l.431-1.728h4.22a1 1 0 0 1 1 1v8.515l-14.7 14.7a5.984 5.984 0 0 0 -.645 7.715l-2.364 2.364a1 1 0 0 0 1.414 1.414l2.364-2.364a5.986 5.986 0 0 0 7.716-.645l6.215-6.213zm17.121-35.463-.748.748-5.657-5.657.749-.748a3.072 3.072 0 0 1 4.242 0l1.414 1.414a3 3 0 0 1 0 4.243z"/><path d="m33.272 20.729a1 1 0 0 0 -1.414 0l-2.122 2.121a1 1 0 1 0 1.414 1.414l2.122-2.121a1 1 0 0 0 0-1.414z"/><path d="m26.908 25.679-2.121 2.121a1 1 0 0 0 1.413 1.414l2.121-2.121a1 1 0 1 0 -1.414-1.414z"/><path d="m12 31h-2a5 5 0 0 0 0 10 1 1 0 0 0 0-2 3 3 0 0 1 0-6h2a1 1 0 0 0 0-2z"/><path d="m9 21h13a1 1 0 0 0 0-2h-13a2 2 0 1 1 0-4h9a1 1 0 0 0 0-2h-9a4 4 0 1 0 0 8z"/></g></svg>