<svg id="line" height="512" viewBox="0 0 64 64" width="512" xmlns="http://www.w3.org/2000/svg"><path d="m19.321 56.678c1.826 1.826 5.3 3.257 6.957 1.6 1.7-1.7.2-5.16-1.6-6.956-1.826-1.826-5.3-3.257-6.957-1.6-1.696 1.697-.195 5.16 1.6 6.956zm-.186-5.541a1 1 0 0 1 .619-.137c2.144 0 4.873 2.442 5.215 4.839a1.563 1.563 0 0 1 -.1 1.024 1 1 0 0 1 -.619.137c-2.144 0-4.873-2.442-5.215-4.839a1.563 1.563 0 0 1 .1-1.024zm-2.642 8.37c3.486 3.485 9.238 4.974 12.613 1.6l32-32c3.34-3.338 1.956-9.058-1.6-12.613-4.307-4.306-9.857-4.357-12.613-1.6l-14.893 14.893v-4.787a1 1 0 0 0 -2 0v5h-5a1 1 0 0 0 0 2h4.787l-14.893 14.894c-3.34 3.338-1.956 9.058 1.599 12.613zm19.737-31.017c5.856-.965 12.34 5.629 11.256 11.417l-6.4 6.4c1.082-5.79-5.405-12.379-11.256-11.415zm-19.922 19.818v-.006c2.537-2.527 7.088-1.086 9.78 1.6 2.612 2.613 4.181 7.2 1.605 9.78l-.006.005c-2.522 2.523-7.071 1.114-9.785-1.6-2.672-2.672-4.14-7.234-1.594-9.779z" fill="#fc8a15"/><path d="m50.316 13.051-24-8a1 1 0 0 0 -.632 0l-24 8a1 1 0 0 0 0 1.9l7.316 2.437v16.612a1 1 0 0 0 .553.9c1.54.6 7.218 4.544 16.447 4.544s15-3.988 16.447-4.544a1 1 0 0 0 .553-.9v-16.612l7.316-2.439a1 1 0 0 0 0-1.898zm-9.316 20.331a30.92 30.92 0 0 1 -15 4.058 30.764 30.764 0 0 1 -15-4.058v-15.328l8 2.667v4.979l-1.832 2.748a1 1 0 0 0 1.664 1.11l1.044-1.567 1.229 2.459a1 1 0 0 0 1.79-.894l-1.895-3.792v-4.376l4.684 1.561a1 1 0 0 0 .632 0l14.684-4.895zm-15-12.436-4.149-1.383 4.856-4.856a1 1 0 0 0 -1.414-1.414l-5.563 5.563-14.568-4.856 20.838-6.946 20.838 6.946z" fill="#151a6a"/></svg>